PathFileType	4	(X/Y/Z)	S01_0004_Gait_markers.trc
DataRate	CameraRate	NumFrames	NumMarkers	Units	OrigDataRate	OrigDataStartFrame	OrigNumFrames
250.000000	250.000000	4	54	mm	250.000000	160	320
Frame#	Time	HEAD_ANT			R_HEAD			L_HEAD			C7			R_BACK			L_BACK			STERNUM			R_ACROMION			R_HUM_PROX			R_HUM_ANT			R_HUM_POST			R_ELBOW_LAT			R_ELBOW_MED			R_FOREARM			R_WIRST_LAT			R_WRITS_MED			R_HAND			L_ACROMION			L_HUM_PROX			L_HUM_ANT			L_HUM_POST			L_ELBOW_LAT			L_ELBOW_MED			L_FOREARM			L_WRIST_LAT			L_WIRST_MED			L_HAND			R_ILIAC			SACRUM			L_ILIAC			R_GTROCH			R_THIGH__1			R_THIGH_2			R_THIGH_3			R_THIGH_4			R_SHANK_1			R_SHANK_2			R_SHANK_3			R_SHANK_4			R_HEEL			R_FOOT_LAT			R_FOOT_MED			L_GTROCH			L_THIGH_1			L_THIGH_2			L_THIGH_3			L_THIGH_4			L_SHANK_1			L_SHANK_2			L_SHANK_3			L_SHANK_4			L_HEEL			L_FOOT_LAT			L_FOOT_MED			
		X1	Y1	Z1	X2	Y2	Z2	X3	Y3	Z3	X4	Y4	Z4	X5	Y5	Z5	X6	Y6	Z6	X7	Y7	Z7	X8	Y8	Z8	X9	Y9	Z9	X10	Y10	Z10	X11	Y11	Z11	X12	Y12	Z12	X13	Y13	Z13	X14	Y14	Z14	X15	Y15	Z15	X16	Y16	Z16	X17	Y17	Z17	X18	Y18	Z18	X19	Y19	Z19	X20	Y20	Z20	X21	Y21	Z21	X22	Y22	Z22	X23	Y23	Z23	X24	Y24	Z24	X25	Y25	Z25	X26	Y26	Z26	X27	Y27	Z27	X28	Y28	Z28	X29	Y29	Z29	X30	Y30	Z30	X31	Y31	Z31	X32	Y32	Z32	X33	Y33	Z33	X34	Y34	Z34	X35	Y35	Z35	X36	Y36	Z36	X37	Y37	Z37	X38	Y38	Z38	X39	Y39	Z39	X40	Y40	Z40	X41	Y41	Z41	X42	Y42	Z42	X43	Y43	Z43	X44	Y44	Z44	X45	Y45	Z45	X46	Y46	Z46	X47	Y47	Z47	X48	Y48	Z48	X49	Y49	Z49	X50	Y50	Z50	X51	Y51	Z51	X52	Y52	Z52	X53	Y53	Z53	X54	Y54	Z54	

161	0.64	1047.558715820312	368.2965698242188	1713.585693359375	991.30908203125	286.5326232910156	1667.474975585938	990.803955078125	433.9201354980469	1657.2734375	857.3843994140625	347.6889953613281	1492.756713867188	780.3760986328125	276.9468383789062	1299.203125	775.0296630859375	407.6527404785156	1299.965942382812	1030.892822265625	356.6683654785156	1324.669555664062	945.5975952148438	180.11083984375	1437.532958984375	932.5361938476562	93.24234771728516	1274.880249023438	1001.544616699219	106.5086288452148	1195.667602539062	884.614501953125	72.52427673339844	1185.319458007812	945.140869140625	81.85762023925781	1082.984741210938	902.3668212890625	154.0192718505859	1077.568481445312	1072.964599609375	124.8628921508789	921.1212158203125	1109.473022460938	180.102783203125	866.28466796875	1060.605834960938	125.5996551513672	828.9869995117188	1145.015747070312	135.4319000244141	780.5537719726562	924.229736328125	520.5173950195312	1442.685668945312	877.9238891601562	606.0663452148438	1274.2412109375	933.7222290039062	612.9093627929688	1189.513305664062	809.9771728515625	618.9406127929688	1200.374755859375	861.8399047851562	628.7938232421875	1090.6025390625	815.330078125	567.1619262695312	1092.164184570312	943.7103271484375	629.31640625	904.9124755859375	975.501953125	582.3032836914062	839.3037719726562	917.9466552734375	637.4901123046875	825.6080322265625	985.282958984375	636.2874145507812	759.4054565429688	922.737060546875	175.9182739257812	1041.4521484375	801.4625854492188	351.2887268066406	1014.593933105469	927.4857788085938	520.63916015625	1037.664916992188	856.397216796875	165.8862915039062	905.4766845703125	819.4170532226562	187.3078918457031	640.0623779296875	877.6047973632812	179.638671875	640.0023193359375	855.1124267578125	211.7187652587891	539.3214721679688	794.696044921875	207.21435546875	562.9451904296875	667.7713012695312	203.2626342773438	380.7538757324219	699.3499145507812	218.6259002685547	332.0024108886719	645.0806884765625	237.7964935302734	266.5963439941406	598.3889770507812	225.9389038085938	308.7847900390625	442.7264709472656	304.2283935546875	173.0630493164062	541.4097900390625	241.5247802734375	31.14226913452148	591.757568359375	339.6504821777344	28.31661987304688	914.382568359375	529.4559326171875	927.8063354492188	1098.08837890625	504.6408996582031	686.1154174804688	1043.606079101562	528.53759765625	683.381103515625	1065.521606445312	496.9932556152344	582.4999389648438	1120.83154296875	479.27587890625	609.9495239257812	1159.427856445312	482.7013244628906	336.9164123535156	1108.140380859375	487.77294921875	304.6115417480469	1121.415893554688	471.9480590820312	219.3877410888672	1181.733520507812	461.3229064941406	238.3787078857422	1113.257202148438	402.5337524414062	35.13040161132812	1292.934204101562	461.3318786621094	28.14083862304688	1322.770141601562	365.4955444335938	54.31930541992188	
162	0.644	1053.64453125	369.5459899902344	1714.39990234375	997.2623291015625	287.7097778320312	1668.246215820312	997.0349731445312	435.0657043457031	1657.952026367188	863.8121337890625	348.7835693359375	1493.732666015625	787.1854858398438	277.5614624023438	1300.13525390625	781.2306518554688	408.5744934082031	1300.754516601562	1037.271484375	357.8258056640625	1325.43017578125	952.200927734375	180.9777526855469	1438.409912109375	938.298828125	94.24567413330078	1275.593505859375	1007.433532714844	106.8840484619141	1196.093872070312	890.2774047851562	73.60665130615234	1186.375854492188	950.4794311523438	82.98239898681641	1083.779174804688	907.9174194335938	155.2999114990234	1078.572875976562	1077.236206054688	125.3551635742188	921.093505859375	1113.505981445312	180.2886657714844	865.8450317382812	1064.244506835938	125.810546875	828.8786010742188	1148.411376953125	135.2367706298828	779.9606323242188	930.830322265625	521.458251953125	1443.121826171875	884.172607421875	606.6810302734375	1274.521484375	940.2671508789062	612.302978515625	1189.673706054688	816.42236328125	619.5060424804688	1200.68994140625	868.3990478515625	629.0079956054688	1090.93115234375	821.95654296875	567.6428833007812	1092.696533203125	950.2923583984375	629.5098266601562	905.19775390625	982.1279907226562	582.5289916992188	839.566650390625	924.4181518554688	637.6702880859375	825.8707275390625	991.8784790039062	636.4718627929688	759.7183227539062	929.64892578125	176.4986572265625	1041.849365234375	807.834228515625	351.461181640625	1015.284606933594	932.9598999023438	521.3130493164062	1038.73291015625	862.9603271484375	166.2271728515625	905.3533935546875	827.116943359375	187.3935852050781	639.77783203125	885.4242553710938	180.0066223144531	640.15625	863.3211669921875	211.5413360595703	539.0073852539062	803.06396484375	206.7678680419922	562.6583862304688	674.9591674804688	203.0106201171875	382.0681762695312	706.0350952148438	217.9873657226562	332.8553161621094	651.0427856445312	237.1267700195312	267.8019409179688	604.7838134765625	225.3047943115234	310.8807067871094	448.3601684570312	303.8590087890625	177.2472991943359	542.4904174804688	241.7065277099609	32.04818725585938	591.922607421875	339.7758178710938	28.43583488464355	920.6961059570312	529.6656494140625	929.7945556640625	1104.918334960938	504.5458068847656	687.5425415039062	1050.833740234375	529.2305297851562	684.919677734375	1072.984130859375	497.6960144042969	583.9461669921875	1127.852905273438	479.2833251953125	611.5138549804688	1163.990356445312	483.1634216308594	336.7959289550781	1112.284057617188	488.6159057617188	304.9545593261719	1124.131103515625	473.4453430175781	220.0118865966797	1184.91748046875	461.5267639160156	238.0062103271484	1113.8623046875	402.6498413085938	35.62985610961914	1293.721435546875	460.8984985351562	26.68598556518555	1323.331787109375	364.6844177246094	52.33452606201172	
163	0.648	1059.732543945312	370.7442932128906	1715.0283203125	1003.283142089844	288.833984375	1668.923583984375	1003.181030273438	436.1286315917969	1658.679809570312	870.3045654296875	349.5664367675781	1494.509765625	793.1842651367188	278.1212158203125	1300.503540039062	787.4910278320312	409.4668884277344	1301.34912109375	1043.562622070312	358.5034484863281	1326.302490234375	958.8423461914062	181.9492950439453	1439.372924804688	944.31298828125	95.16082763671875	1276.732788085938	1013.213806152344	107.6466217041016	1196.96875	895.8759765625	74.74391937255859	1187.31494140625	955.6427612304688	83.81781768798828	1084.767700195312	913.4322509765625	156.4738464355469	1079.842529296875	1081.587036132812	125.5577774047852	921.0279541015625	1117.71484375	180.4397430419922	865.4346923828125	1067.7529296875	125.9525451660156	828.7781372070312	1151.725952148438	134.1374053955078	779.5944213867188	937.1771850585938	522.3328857421875	1443.562255859375	890.7753295898438	607.324462890625	1274.963500976562	946.90478515625	612.8180541992188	1190.254516601562	823.0344848632812	619.8135986328125	1201.262451171875	871.5543212890625	630.6622314453125	1092.687744140625	828.60009765625	567.8521118164062	1093.390380859375	956.86767578125	629.56982421875	905.9459228515625	988.8225708007812	582.7369384765625	839.957275390625	931.0009765625	637.6339111328125	826.29296875	998.489990234375	636.7243041992188	760.2740478515625	936.6588745117188	176.9382629394531	1042.138671875	814.17529296875	351.6500549316406	1015.841369628906	936.3974609375	522.1795043945312	1039.943481445312	869.4257202148438	166.5534515380859	905.3746948242188	835.0039672851562	187.3648223876953	639.3584594726562	893.4475708007812	179.7223205566406	640.035888671875	871.7374877929688	211.2702178955078	538.8150634765625	811.4759521484375	206.3473052978516	562.4375	682.20947265625	202.7216339111328	383.3295288085938	712.81640625	217.2431945800781	333.6779479980469	657.19140625	236.3563537597656	269.2704772949219	611.3220825195312	225.0492858886719	312.6309509277344	454.4423828125	303.6358032226562	181.3303527832031	543.2368774414062	242.2137298583984	33.00760269165039	592.2164916992188	339.8173522949219	28.66923522949219	926.7687377929688	529.6642456054688	931.5344848632812	1111.473510742188	504.4815673828125	688.7406616210938	1057.83837890625	529.814208984375	686.1903076171875	1079.841796875	498.8404541015625	584.9562377929688	1134.578857421875	479.5512390136719	612.591552734375	1168.360229492188	483.2781677246094	336.6145935058594	1116.259033203125	489.1745300292969	305.55712890625	1127.077514648438	473.8906860351562	220.2784271240234	1187.953369140625	461.5084228515625	237.5794372558594	1114.543212890625	402.7953186035156	36.07928466796875	1294.51123046875	460.580810546875	25.27214241027832	1323.99072265625	363.9992370605469	50.17258071899414	
164	0.652	1065.843383789062	371.8524475097656	1715.58349609375	1009.427368164062	290.0503845214844	1669.630737304688	1009.233215332031	437.3818054199219	1659.341430664062	876.6267700195312	350.6873168945312	1495.311645507812	799.5646362304688	278.5383605957031	1301.233032226562	793.8018798828125	410.5526428222656	1301.9072265625	1049.861694335938	359.381103515625	1327.112915039062	965.4324340820312	182.9830627441406	1440.328979492188	950.2078857421875	95.83316040039062	1277.45263671875	1018.794494628906	108.7070541381836	1197.869995117188	901.5005493164062	75.99166870117188	1188.539184570312	960.7579345703125	84.84034729003906	1085.709716796875	919.16748046875	157.5091400146484	1081.130249023438	1085.897216796875	125.959716796875	921.117431640625	1121.931030273438	180.5905456542969	865.22265625	1071.245483398438	126.2272872924805	828.9014282226562	1154.880615234375	133.9770050048828	778.9653930664062	943.5252685546875	523.3125	1444.102905273438	897.5755004882812	607.9406127929688	1275.554443359375	953.5643310546875	614.424072265625	1191.000366210938	829.6490478515625	620.303955078125	1201.673461914062	878.3399658203125	631.182861328125	1093.13916015625	835.2374877929688	568.2589111328125	1093.87939453125	963.55859375	629.640869140625	906.5660400390625	995.55712890625	582.7049560546875	840.5292358398438	937.610595703125	637.679443359375	826.8455810546875	1005.137390136719	637.2479858398438	760.995849609375	943.3287353515625	177.6168365478516	1042.982543945312	820.4794921875	351.6600036621094	1016.299926757812	942.2249755859375	522.696044921875	1041.608154296875	875.9136962890625	166.7801818847656	905.3018798828125	843.2838134765625	187.7911529541016	639.1986694335938	901.362548828125	179.0710754394531	640.2420043945312	880.3334350585938	210.9397583007812	538.560302734375	819.7167358398438	206.1728820800781	561.712890625	689.6796875	202.5367736816406	384.4801940917969	719.642333984375	217.1303100585938	334.4491882324219	663.54638671875	235.5122680664062	270.5579223632812	618.073974609375	223.7624053955078	314.7674560546875	460.803466796875	303.29052734375	185.5058441162109	544.630615234375	242.5190582275391	34.06917953491211	592.733154296875	339.8141784667969	29.02877998352051	932.8231811523438	529.747802734375	933.2142333984375	1118.004638671875	504.507568359375	689.6558837890625	1064.740600585938	529.935791015625	687.0999145507812	1086.38720703125	499.5363464355469	585.9542846679688	1140.876953125	479.7181701660156	613.56640625	1172.595581054688	483.14013671875	336.2495727539062	1120.160522460938	489.475830078125	305.7825317382812	1130.3251953125	473.2454223632812	220.0424652099609	1190.991333007812	461.4148864746094	237.1359405517578	1115.17919921875	402.887939453125	36.57860565185547	1295.32275390625	460.8708801269531	23.87173271179199	1324.731567382812	363.1553649902344	47.99878311157227	
